<svg id="Livello_1" data-name="Livello 1" xmlns="http://www.w3.org/2000/svg" viewBox="0 0 312.38 275.01"><defs><style>.cls-1{fill:#f2f2f2;}.cls-2{fill:#33b1f5;}.cls-3{fill:none;stroke:#f2f2f2;stroke-miterlimit:10;stroke-width:8px;}</style></defs><title>vertical</title><path class="cls-1" d="M8.43,211.69a15.8,15.8,0,0,1,1.58-.23c.53-.05,1.09-.08,1.65-.08s1.05,0,1.62.08a16.2,16.2,0,0,1,1.62.23,5.28,5.28,0,0,1,.19,1c.07.54.15,1.12.23,1.74s.15,1.2.23,1.77a10.27,10.27,0,0,1,.12,1.08,15,15,0,0,1,1.84-2.39,12.56,12.56,0,0,1,2.58-2.08,13.35,13.35,0,0,1,3.39-1.46,15.27,15.27,0,0,1,4.2-.54,17.57,17.57,0,0,1,6.43,1.15,13,13,0,0,1,5.08,3.58,17.31,17.31,0,0,1,3.31,6.16,29.27,29.27,0,0,1,1.19,8.82q0,10.17-5.5,15.9T22.6,252.12a27.57,27.57,0,0,1-3.47-.23,20.6,20.6,0,0,1-3.08-.62v18.09c-.62.11-1.27.18-2,.24s-1.33.07-1.89.07-1.19,0-1.89-.07a18.09,18.09,0,0,1-1.88-.24Zm7.62,33a14.86,14.86,0,0,0,3,.77,27,27,0,0,0,4,.24,14.08,14.08,0,0,0,5.08-.89,10.18,10.18,0,0,0,4-2.73,13.51,13.51,0,0,0,2.61-4.66,20.7,20.7,0,0,0,1-6.66q0-6.16-2.28-9.78T26,217.39a10.07,10.07,0,0,0-3.69.69,9.15,9.15,0,0,0-3.16,2.08,10.22,10.22,0,0,0-2.23,3.5,13.52,13.52,0,0,0-.85,5.05Z"/><path class="cls-1" d="M53.93,211.69c.57-.1,1.11-.18,1.62-.23s1.05-.08,1.62-.08,1.13,0,1.69.08a12.28,12.28,0,0,1,1.54.23c.16.77.31,1.79.46,3a25.86,25.86,0,0,1,.23,3.2,15.89,15.89,0,0,1,4.28-4.54,11.27,11.27,0,0,1,6.81-1.93c.41,0,.84,0,1.27,0s.81.06,1.12.11a12.92,12.92,0,0,1,.23,1.47c0,.51.08,1,.08,1.61a16.25,16.25,0,0,1-.12,1.93q-.11,1-.27,1.92a5.32,5.32,0,0,0-1.27-.15h-1a13.27,13.27,0,0,0-4,.58,8.17,8.17,0,0,0-3.39,2,10.13,10.13,0,0,0-2.39,4,20.33,20.33,0,0,0-.88,6.55v19.63a18.82,18.82,0,0,1-1.89.23c-.69.05-1.32.08-1.89.08s-1.19,0-1.88-.08-1.35-.13-2-.23Z"/><path class="cls-1" d="M97.44,252.12a19.4,19.4,0,0,1-8.09-1.58,16.11,16.11,0,0,1-5.77-4.35,18.21,18.21,0,0,1-3.43-6.55,30.55,30.55,0,0,1,0-16.32,18.21,18.21,0,0,1,3.43-6.55,16.56,16.56,0,0,1,5.77-4.39,21.11,21.11,0,0,1,16.17,0,16.59,16.59,0,0,1,5.78,4.39,18.21,18.21,0,0,1,3.43,6.55,30.55,30.55,0,0,1,0,16.32,18.21,18.21,0,0,1-3.43,6.55,16.14,16.14,0,0,1-5.78,4.35A19.35,19.35,0,0,1,97.44,252.12Zm0-6.09q5.31,0,7.85-3.85t2.54-10.7q0-6.85-2.54-10.66T97.44,217q-5.31,0-7.82,3.82t-2.5,10.66q0,6.86,2.5,10.7T97.44,246Z"/><path class="cls-1" d="M119.46,211.69c.72-.1,1.46-.18,2.23-.23s1.47-.08,2.08-.08,1.4,0,2.2.08a18.8,18.8,0,0,1,2,.23l10.78,32.57,10.86-32.57a18.1,18.1,0,0,1,1.92-.23c.72-.05,1.41-.08,2.08-.08s1.2,0,1.92.08,1.44.13,2.16.23l-15.4,39.5c-.67.1-1.34.18-2,.23s-1.29.08-1.85.08-1.17,0-1.81-.08-1.27-.13-1.89-.23Z"/><path class="cls-1" d="M186.07,225.17q0-4.54-2.31-6.32c-1.54-1.18-3.78-1.77-6.7-1.77a28.74,28.74,0,0,0-5.05.42,40.8,40.8,0,0,0-4.58,1.12,12,12,0,0,1-1.46-6.08,35,35,0,0,1,5.77-1.31,41.89,41.89,0,0,1,6.09-.46q7.69,0,11.7,3.5t4,11.2v24.72c-1.79.41-4,.84-6.54,1.27a46.46,46.46,0,0,1-7.85.66,30.3,30.3,0,0,1-6.82-.7,13.81,13.81,0,0,1-5.16-2.23,10.33,10.33,0,0,1-3.27-3.93,13.13,13.13,0,0,1-1.16-5.77,11.75,11.75,0,0,1,5-10,16.21,16.21,0,0,1,5.31-2.47,24.17,24.17,0,0,1,6.32-.81c1.64,0,3,0,4,.12s1.94.17,2.66.27Zm0,7.47c-.77-.11-1.75-.21-2.93-.31s-2.18-.16-3-.16c-3.19,0-5.61.59-7.28,1.77a6.17,6.17,0,0,0-2.5,5.39,6.66,6.66,0,0,0,.84,3.62,5.86,5.86,0,0,0,2.12,2,7.2,7.2,0,0,0,2.81.85,27.5,27.5,0,0,0,2.93.16,35.71,35.71,0,0,0,3.66-.2,22.16,22.16,0,0,0,3.35-.57Z"/><path class="cls-1" d="M204.93,194.75a18.12,18.12,0,0,1,1.89-.23c.69-.05,1.32-.08,1.88-.08s1.21,0,1.93.08a18.1,18.1,0,0,1,1.92.23v21.72a11.76,11.76,0,0,1,4.31-4,14,14,0,0,1,7.09-1.69,18.05,18.05,0,0,1,6.54,1.15,13.07,13.07,0,0,1,5.16,3.58,16.76,16.76,0,0,1,3.35,6.16,28.94,28.94,0,0,1,1.2,8.82q0,10.17-5.74,15.9t-16.52,5.74a38.25,38.25,0,0,1-7-.66,40.71,40.71,0,0,1-6-1.5Zm7.62,50.05a15.33,15.33,0,0,0,3,.66,28.76,28.76,0,0,0,3.27.19,15.22,15.22,0,0,0,5.27-.89,11.18,11.18,0,0,0,4.2-2.69,12.92,12.92,0,0,0,2.81-4.62,19.09,19.09,0,0,0,1-6.66q0-6.39-2.23-9.94c-1.49-2.36-4-3.54-7.39-3.54a10.94,10.94,0,0,0-3.51.58,9.21,9.21,0,0,0-3.19,1.85,8.82,8.82,0,0,0-2.35,3.39,13.22,13.22,0,0,0-.89,5.12Z"/><path class="cls-1" d="M250.28,194.75a18.82,18.82,0,0,1,1.89-.23c.69-.05,1.32-.08,1.89-.08s1.19,0,1.88.08a18.46,18.46,0,0,1,1.89.23v44.51a12.07,12.07,0,0,0,.38,3.39,4.59,4.59,0,0,0,1,1.88,3.06,3.06,0,0,0,1.54.85,8.78,8.78,0,0,0,1.89.19,15.59,15.59,0,0,0,1.58-.08,8.82,8.82,0,0,0,1.5-.23,23.6,23.6,0,0,1,.69,5.86,10.52,10.52,0,0,1-2.62.5c-1,.07-2,.11-2.84.11a15.33,15.33,0,0,1-4.16-.54,8.87,8.87,0,0,1-3.39-1.77,8.21,8.21,0,0,1-2.31-3.31,13.65,13.65,0,0,1-.85-5.16Z"/><path class="cls-1" d="M279.08,233.33q.15,6.46,3.35,9.47t9.43,3a28.4,28.4,0,0,0,10.4-1.92,11.61,11.61,0,0,1,1,2.81,18.65,18.65,0,0,1,.46,3.27,25.77,25.77,0,0,1-5.58,1.62,38.76,38.76,0,0,1-6.74.54,25.49,25.49,0,0,1-9.24-1.5,16.27,16.27,0,0,1-10-10.71,27.64,27.64,0,0,1-1.15-8.2,29.18,29.18,0,0,1,1.11-8.2,18.53,18.53,0,0,1,3.43-6.62,16.72,16.72,0,0,1,5.81-4.47,19.29,19.29,0,0,1,8.28-1.65,17.36,17.36,0,0,1,7.16,1.38A14.78,14.78,0,0,1,302,216a16.58,16.58,0,0,1,3.16,5.78,23.9,23.9,0,0,1,1.07,7.28c0,.72,0,1.47-.07,2.27s-.11,1.47-.16,2Zm19.56-5.7a14.35,14.35,0,0,0-.58-4.12,10.48,10.48,0,0,0-1.69-3.43,8.38,8.38,0,0,0-2.85-2.34,9,9,0,0,0-4.12-.89q-4.69,0-7.2,2.85a13.93,13.93,0,0,0-3,7.93Z"/><path class="cls-2" d="M223.26,59.35C213.34,38.86,196,22.5,173.73,16.52A79.09,79.09,0,0,0,102,32.92c-3.68,3.13,1.65,8.42,5.31,5.31a71.24,71.24,0,0,1,65.77-14.11c19.92,5.77,34.83,20.66,43.72,39,2.11,4.35,8.58.55,6.48-3.78Z"/><path class="cls-2" d="M180,163.79c15.74-6.19,29.57-16.31,38.69-30.74,9.68-15.32,13.06-34.14,10.78-52-.6-4.72-8.11-4.78-7.5,0,2.07,16.21-.54,33-9.07,47.11-8,13.21-20.62,22.78-34.89,28.4-4.44,1.74-2.51,9,2,7.23Z"/><path class="cls-2" d="M88.05,49c-15.78,25.41-17,57.44-1,83.18A78.21,78.21,0,0,0,156,168.78c4.82-.16,4.84-7.66,0-7.5-25.14.8-49.12-11.43-62.46-32.93C78.92,104.81,80.1,76,94.52,52.74c2.56-4.11-3.93-7.88-6.47-3.79Z"/><path class="cls-2" d="M152.81,34.23A58,58,0,0,0,103.8,62C91.64,82,93,105.9,107.16,124.46c2.89,3.78,9.41.05,6.48-3.79-6.53-8.52-11.21-18.48-11-29.42a52.11,52.11,0,0,1,7.59-25.46,50.28,50.28,0,0,1,42.54-24.06c4.83-.06,4.84-7.56,0-7.5Z"/><path class="cls-2" d="M125.19,141.42c21.05,12.09,48.33,8.42,66.22-7.81a57.28,57.28,0,0,0-12.94-93.47c-4.29-2.19-8.09,4.27-3.79,6.48,24.63,12.63,35.37,43.31,22,68.1-12.8,23.83-44,33.86-67.75,20.23-4.19-2.41-8,4.07-3.79,6.47Z"/><circle class="cls-3" cx="152.81" cy="91.33" r="33"/><circle class="cls-2" cx="105.17" cy="35.6" r="7.75"/><circle class="cls-2" cx="156.17" cy="165.09" r="7.75"/><circle class="cls-2" cx="225.4" cy="81.1" r="7.75"/><circle class="cls-2" cx="176.42" cy="43.35" r="7.75"/><circle class="cls-2" cx="110.42" cy="124.35" r="7.75"/></svg>